<svg width="143" height="27" viewBox="0 0 143 27" fill="none" xmlns="http://www.w3.org/2000/svg">
<path d="M38.8335 9.1103C38.583 9.1103 38.3399 9.0661 38.1042 8.9777C37.8832 8.87457 37.6843 8.74197 37.5075 8.57991C37.3454 8.40311 37.2128 8.20421 37.1097 7.98321C37.0213 7.76222 36.9771 7.51912 36.9771 7.25392C36.9771 6.98873 37.0213 6.74563 37.1097 6.52463C37.2128 6.30363 37.3454 6.1121 37.5075 5.95004C37.6843 5.77324 37.8832 5.64064 38.1042 5.55224C38.3399 5.44911 38.583 5.39754 38.8335 5.39754C39.3491 5.39754 39.7911 5.58171 40.1595 5.95004C40.5278 6.30363 40.712 6.73826 40.712 7.25392C40.712 7.76958 40.5278 8.21158 40.1595 8.57991C39.7911 8.9335 39.3491 9.1103 38.8335 9.1103ZM37.397 21.5083V10.6794H40.2921V21.5083H37.397ZM44.7736 12.0938H44.9504C45.2893 11.5486 45.746 11.1214 46.3206 10.812C46.8952 10.4879 47.5509 10.3258 48.2875 10.3258C48.9652 10.3258 49.5619 10.4363 50.0776 10.6573C50.5933 10.8783 51.0131 11.195 51.3373 11.6076C51.6761 12.0054 51.9266 12.4916 52.0887 13.0662C52.2655 13.626 52.3539 14.2522 52.3539 14.9446V21.5083H49.4588V15.2982C49.4588 14.5174 49.282 13.9428 48.9284 13.5745C48.5895 13.1914 48.0886 12.9999 47.4256 12.9999C47.0278 12.9999 46.6742 13.0883 46.3648 13.2651C46.0702 13.4271 45.8123 13.6555 45.5913 13.9502C45.3851 14.2301 45.223 14.5689 45.1051 14.9667C45.002 15.3498 44.9504 15.7623 44.9504 16.2043V21.5083H42.0554V10.6794H44.7736V12.0938ZM61.9279 20.2044H61.7511C61.4859 20.6611 61.0734 21.0515 60.5135 21.3757C59.9537 21.6998 59.2612 21.8619 58.4361 21.8619C57.7437 21.8619 57.0807 21.7219 56.4472 21.442C55.8284 21.1473 55.2759 20.7495 54.7897 20.2486C54.3182 19.7329 53.9425 19.1215 53.6626 18.4143C53.3827 17.7071 53.2427 16.9336 53.2427 16.0938C53.2427 15.254 53.3827 14.4805 53.6626 13.7734C53.9425 13.0662 54.3182 12.4621 54.7897 11.9612C55.2759 11.4455 55.8284 11.0477 56.4472 10.7678C57.0807 10.4731 57.7437 10.3258 58.4361 10.3258C59.2612 10.3258 59.9537 10.4879 60.5135 10.812C61.0734 11.1361 61.4859 11.5265 61.7511 11.9833H61.9279L61.7511 10.4363V5.68484H64.6462V21.5083H61.9279V20.2044ZM59.0328 19.1878C59.4159 19.1878 59.7769 19.1215 60.1157 18.9889C60.4693 18.8416 60.7787 18.6353 61.0439 18.3701C61.3091 18.1049 61.5227 17.7808 61.6848 17.3977C61.8469 17.0147 61.9279 16.58 61.9279 16.0938C61.9279 15.6076 61.8469 15.173 61.6848 14.7899C61.5227 14.4069 61.3091 14.0827 61.0439 13.8176C60.7787 13.5524 60.4693 13.3535 60.1157 13.2209C59.7769 13.0735 59.4159 12.9999 59.0328 12.9999C58.6498 12.9999 58.2814 13.0735 57.9278 13.2209C57.589 13.3682 57.2869 13.5745 57.0218 13.8397C56.7566 14.1048 56.5429 14.429 56.3809 14.812C56.2188 15.1951 56.1378 15.6224 56.1378 16.0938C56.1378 16.5653 56.2188 16.9926 56.3809 17.3756C56.5429 17.7587 56.7566 18.0828 57.0218 18.348C57.2869 18.6132 57.589 18.8195 57.9278 18.9668C58.2814 19.1141 58.6498 19.1878 59.0328 19.1878ZM71.248 10.3258C72.0877 10.3258 72.8539 10.4731 73.5463 10.7678C74.2535 11.0477 74.8576 11.4455 75.3585 11.9612C75.8742 12.4621 76.272 13.0662 76.5519 13.7734C76.8466 14.4805 76.9939 15.254 76.9939 16.0938C76.9939 16.9336 76.8466 17.7071 76.5519 18.4143C76.272 19.1215 75.8742 19.7329 75.3585 20.2486C74.8576 20.7495 74.2535 21.1473 73.5463 21.442C72.8539 21.7219 72.0877 21.8619 71.248 21.8619C70.4082 21.8619 69.6347 21.7219 68.9275 21.442C68.235 21.1473 67.631 20.7495 67.1153 20.2486C66.6144 19.7329 66.2166 19.1215 65.9219 18.4143C65.642 17.7071 65.502 16.9336 65.502 16.0938C65.502 15.254 65.642 14.4805 65.9219 13.7734C66.2166 13.0662 66.6144 12.4621 67.1153 11.9612C67.631 11.4455 68.235 11.0477 68.9275 10.7678C69.6347 10.4731 70.4082 10.3258 71.248 10.3258ZM71.248 19.1878C71.6163 19.1878 71.9699 19.1215 72.3087 18.9889C72.6623 18.8416 72.9717 18.6353 73.2369 18.3701C73.5021 18.1049 73.7084 17.7808 73.8557 17.3977C74.0178 17.0147 74.0988 16.58 74.0988 16.0938C74.0988 15.6076 74.0178 15.173 73.8557 14.7899C73.7084 14.4069 73.5021 14.0827 73.2369 13.8176C72.9717 13.5524 72.6623 13.3535 72.3087 13.2209C71.9699 13.0735 71.6163 12.9999 71.248 12.9999C70.8649 12.9999 70.5039 13.0735 70.1651 13.2209C69.8262 13.3535 69.5242 13.5524 69.259 13.8176C68.9938 14.0827 68.7801 14.4069 68.6181 14.7899C68.4708 15.173 68.3971 15.6076 68.3971 16.0938C68.3971 16.58 68.4708 17.0147 68.6181 17.3977C68.7801 17.7808 68.9938 18.1049 69.259 18.3701C69.5242 18.6353 69.8262 18.8416 70.1651 18.9889C70.5039 19.1215 70.8649 19.1878 71.248 19.1878ZM78.8397 13.1546H76.9392V10.6794H78.8397V7.36442H81.7348V10.6794H84.3868V13.1546H81.7348V17.3535C81.7348 17.604 81.7569 17.8397 81.8011 18.0607C81.86 18.267 81.9632 18.4438 82.1105 18.5911C82.3168 18.8268 82.6114 18.9447 82.9945 18.9447C83.245 18.9447 83.4439 18.9226 83.5912 18.8784C83.7385 18.8195 83.8785 18.7458 84.0111 18.6574L84.8288 21.1989C84.4899 21.3609 84.1216 21.4788 83.7238 21.5525C83.3407 21.6409 82.9135 21.6851 82.442 21.6851C81.8969 21.6851 81.4033 21.604 80.9613 21.442C80.5341 21.2652 80.1731 21.0294 79.8784 20.7348C79.186 20.0718 78.8397 19.1289 78.8397 17.906V13.1546ZM95.7789 18.9005C95.2779 19.7845 94.6002 20.499 93.7457 21.0442C92.9059 21.5893 91.8746 21.8619 90.6517 21.8619C89.8267 21.8619 89.0605 21.7219 88.3533 21.442C87.6609 21.1473 87.0568 20.7421 86.5412 20.2265C86.0255 19.7108 85.6203 19.1068 85.3257 18.4143C85.0457 17.7071 84.9058 16.9336 84.9058 16.0938C84.9058 15.313 85.0457 14.5763 85.3257 13.8839C85.6056 13.1767 85.996 12.5652 86.497 12.0496C86.9979 11.5192 87.5872 11.0993 88.2649 10.7899C88.9574 10.4805 89.7162 10.3258 90.5412 10.3258C91.4105 10.3258 92.184 10.4731 92.8617 10.7678C93.5394 11.0477 94.1066 11.4455 94.5634 11.9612C95.0201 12.4621 95.3663 13.0588 95.6021 13.7513C95.8378 14.4437 95.9557 15.1951 95.9557 16.0054C95.9557 16.1086 95.9557 16.197 95.9557 16.2706C95.9409 16.359 95.9336 16.4401 95.9336 16.5137C95.9188 16.5874 95.9115 16.6684 95.9115 16.7568H87.7567C87.8156 17.1988 87.9334 17.5819 88.1102 17.906C88.3018 18.2154 88.5301 18.4806 88.7953 18.7016C89.0753 18.9079 89.3773 19.0626 89.7014 19.1657C90.0256 19.2541 90.3571 19.2983 90.6959 19.2983C91.3589 19.2983 91.904 19.151 92.3313 18.8563C92.7733 18.5469 93.1195 18.1638 93.37 17.7071L95.7789 18.9005ZM93.149 14.7015C93.1343 14.51 93.068 14.2964 92.9501 14.0607C92.847 13.8249 92.6849 13.6039 92.4639 13.3977C92.2576 13.1914 91.9924 13.022 91.6683 12.8894C91.3589 12.7568 90.9832 12.6905 90.5412 12.6905C89.9224 12.6905 89.3773 12.8673 88.9058 13.2209C88.4344 13.5745 88.1029 14.068 87.9113 14.7015H93.149ZM96.9206 5.68484H99.8157V14.3037H99.9483L103.573 10.6794H107.153V10.8562L103.131 14.7678L107.484 21.3315V21.5083H104.059L101.097 16.7568L99.8157 18.0165V21.5083H96.9206V5.68484ZM111.827 21.8619C111.12 21.8619 110.486 21.7735 109.927 21.5967C109.381 21.4199 108.903 21.1915 108.49 20.9116C108.092 20.6169 107.753 20.2854 107.473 19.9171C107.194 19.534 106.98 19.151 106.833 18.7679L109.418 17.6629C109.669 18.2228 110 18.6427 110.413 18.9226C110.84 19.1878 111.311 19.3204 111.827 19.3204C112.357 19.3204 112.777 19.2246 113.087 19.0331C113.396 18.8416 113.551 18.6132 113.551 18.348C113.551 18.0533 113.418 17.8176 113.153 17.6408C112.903 17.4493 112.461 17.2798 111.827 17.1325L110.302 16.801C109.963 16.7274 109.61 16.6095 109.241 16.4474C108.888 16.2854 108.564 16.0791 108.269 15.8286C107.974 15.5782 107.731 15.2761 107.54 14.9225C107.348 14.5689 107.252 14.1564 107.252 13.685C107.252 13.1546 107.363 12.6831 107.584 12.2706C107.82 11.858 108.136 11.5118 108.534 11.2319C108.932 10.9372 109.396 10.7162 109.927 10.5689C110.472 10.4068 111.054 10.3258 111.672 10.3258C112.704 10.3258 113.625 10.5321 114.435 10.9446C115.245 11.3424 115.842 11.9833 116.225 12.8673L113.728 13.8839C113.521 13.4566 113.219 13.1472 112.822 12.9557C112.424 12.7641 112.026 12.6684 111.628 12.6684C111.216 12.6684 110.855 12.7568 110.545 12.9336C110.236 13.0956 110.081 13.3093 110.081 13.5745C110.081 13.8249 110.206 14.0238 110.457 14.1711C110.722 14.3185 111.076 14.4511 111.518 14.5689L113.175 14.9667C114.28 15.2319 115.098 15.6592 115.628 16.2485C116.173 16.8231 116.446 17.5082 116.446 18.3038C116.446 18.7753 116.335 19.2246 116.114 19.6519C115.893 20.0792 115.577 20.4622 115.164 20.8011C114.766 21.1252 114.28 21.383 113.706 21.5746C113.146 21.7661 112.52 21.8619 111.827 21.8619ZM124.121 20.3591H123.944C123.605 20.7716 123.193 21.1252 122.706 21.4199C122.235 21.7145 121.624 21.8619 120.872 21.8619C120.312 21.8619 119.782 21.7661 119.281 21.5746C118.795 21.3978 118.367 21.1473 117.999 20.8232C117.631 20.499 117.344 20.1086 117.137 19.6519C116.931 19.1952 116.828 18.6942 116.828 18.1491C116.828 17.5892 116.938 17.0883 117.159 16.6463C117.38 16.1896 117.69 15.7992 118.088 15.475C118.485 15.1509 118.949 14.9078 119.48 14.7457C120.025 14.5689 120.614 14.4805 121.248 14.4805C121.955 14.4805 122.537 14.5395 122.994 14.6573C123.45 14.7605 123.826 14.871 124.121 14.9888V14.6573C124.121 14.0828 123.892 13.6113 123.436 13.243C122.979 12.8599 122.412 12.6684 121.734 12.6684C120.732 12.6684 119.885 13.0883 119.193 13.9281L117.093 12.4916C118.242 11.0477 119.811 10.3258 121.8 10.3258C123.48 10.3258 124.762 10.7236 125.646 11.5192C126.53 12.3 126.972 13.464 126.972 15.0109V21.5083H124.121V20.3591ZM124.121 17.1104C123.782 16.9484 123.428 16.8231 123.06 16.7347C122.706 16.6316 122.316 16.58 121.889 16.58C121.196 16.58 120.658 16.7347 120.275 17.0441C119.907 17.3388 119.723 17.7071 119.723 18.1491C119.723 18.5911 119.9 18.9447 120.253 19.2099C120.622 19.4751 121.042 19.6077 121.513 19.6077C121.896 19.6077 122.25 19.5414 122.574 19.4088C122.898 19.2615 123.17 19.0773 123.391 18.8563C123.627 18.6206 123.804 18.3554 123.922 18.0607C124.054 17.7513 124.121 17.4345 124.121 17.1104ZM136.395 13.1546H132.306V21.5083H129.411V13.1546H127.466V10.6794H129.411V9.6186C129.411 8.95561 129.507 8.37364 129.699 7.87272C129.905 7.35706 130.192 6.92979 130.56 6.59093C130.929 6.23733 131.363 5.97214 131.864 5.79534C132.365 5.60381 132.918 5.50804 133.522 5.50804C133.816 5.50804 134.052 5.52277 134.229 5.55224C134.406 5.58171 134.575 5.62591 134.737 5.68484L134.56 8.40311C134.457 8.35891 134.339 8.32208 134.207 8.29261C134.074 8.26315 133.905 8.24841 133.699 8.24841C133.271 8.24841 132.932 8.38838 132.682 8.66831C132.432 8.94824 132.306 9.3313 132.306 9.8175V10.6794H136.395V7.36442H139.29V10.6794H141.942V13.1546H139.29V17.3535C139.29 17.604 139.312 17.8397 139.356 18.0607C139.415 18.267 139.518 18.4438 139.666 18.5911C139.872 18.8268 140.166 18.9447 140.55 18.9447C140.8 18.9447 140.999 18.9226 141.146 18.8784C141.294 18.8195 141.434 18.7458 141.566 18.6574L142.384 21.1989C142.045 21.3609 141.677 21.4788 141.279 21.5525C140.896 21.6409 140.468 21.6851 139.997 21.6851C139.452 21.6851 138.958 21.604 138.516 21.442C138.089 21.2652 137.728 21.0294 137.433 20.7348C136.741 20.0718 136.395 19.1289 136.395 17.906V13.1546Z" fill="white"/>
<path d="M13.0971 4.71064C12.0509 3.63302 12.0509 1.88584 13.0971 0.808218C14.1432 -0.269406 15.8394 -0.269406 16.8855 0.808218C17.9317 1.88584 17.9317 3.63302 16.8855 4.71064C15.8394 5.78827 14.1432 5.78827 13.0971 4.71064Z" fill="#085CF0"/>
<path d="M3.62597 22.2716C2.57982 23.3492 2.57982 25.0964 3.62597 26.174C4.67213 27.2516 6.36827 27.2516 7.41442 26.174L18.543 14.7106C18.5437 14.7098 18.5445 14.7091 18.5452 14.7083C18.7962 14.451 19.1359 14.3065 19.4901 14.3065C19.8453 14.3065 20.186 14.4519 20.4372 14.7106C20.6884 14.9694 20.8295 15.3203 20.8295 15.6862C20.8295 16.0498 20.6902 16.3987 20.4419 16.6569C20.4404 16.6586 20.4388 16.6602 20.4372 16.6618L17.8326 19.3447C16.7865 20.4224 16.7865 22.1695 17.8326 23.2472C18.8788 24.3248 20.5749 24.3248 21.6211 23.2472L29.198 15.4423C30.2441 14.3647 30.2441 12.6175 29.198 11.5399C28.1518 10.4623 26.4557 10.4623 25.4095 11.5399L24.6992 12.2716C24.6976 12.2732 24.696 12.2749 24.6944 12.2765C24.4437 12.5322 24.1051 12.6757 23.7521 12.6757C23.3969 12.6757 23.0562 12.5303 22.805 12.2716C22.5538 12.0128 22.4127 11.6619 22.4127 11.296C22.4127 10.9311 22.553 10.581 22.803 10.3225C22.8036 10.3218 22.8043 10.3211 22.805 10.3204L26.3567 6.66186C27.4028 5.58423 27.4028 3.83706 26.3567 2.75944C25.3105 1.68181 23.6144 1.68181 22.5682 2.75944L11.4396 14.2228C11.1884 14.4815 10.8478 14.6269 10.4925 14.6269C10.1373 14.6269 9.79659 14.4815 9.5454 14.2228C9.29421 13.9641 9.1531 13.6131 9.1531 13.2472C9.1531 12.8813 9.29421 12.5303 9.5454 12.2716L12.15 9.58867C13.1961 8.51105 13.1961 6.76387 12.15 5.68625C11.1038 4.60862 9.40767 4.60862 8.36151 5.68625L0.784614 13.4911C-0.261538 14.5687 -0.261538 16.3159 0.784614 17.3935C1.83077 18.4711 3.52691 18.4711 4.57306 17.3935L5.2834 16.6618C5.53459 16.4031 5.87527 16.2577 6.23051 16.2577C6.58575 16.2577 6.92643 16.4031 7.17762 16.6618C7.42881 16.9206 7.56993 17.2715 7.56993 17.6374C7.56993 18.0033 7.42881 18.3543 7.17762 18.613L3.62597 22.2716Z" fill="#085CF0"/>
</svg>
