<svg width="30" height="27" viewBox="0 0 30 27" fill="none" xmlns="http://www.w3.org/2000/svg">
<path d="M13.0971 4.71064C12.0509 3.63302 12.0509 1.88584 13.0971 0.808218C14.1432 -0.269406 15.8394 -0.269406 16.8855 0.808218C17.9317 1.88584 17.9317 3.63302 16.8855 4.71064C15.8394 5.78827 14.1432 5.78827 13.0971 4.71064Z" fill="#085CF0"/>
<path d="M3.62597 22.2716C2.57982 23.3492 2.57982 25.0964 3.62597 26.174C4.67213 27.2516 6.36827 27.2516 7.41442 26.174L18.543 14.7106C18.5437 14.7098 18.5445 14.7091 18.5452 14.7083C18.7962 14.451 19.1359 14.3065 19.4901 14.3065C19.8453 14.3065 20.186 14.4519 20.4372 14.7106C20.6884 14.9694 20.8295 15.3203 20.8295 15.6862C20.8295 16.0498 20.6902 16.3987 20.4419 16.6569C20.4404 16.6586 20.4388 16.6602 20.4372 16.6618L17.8326 19.3447C16.7865 20.4224 16.7865 22.1695 17.8326 23.2472C18.8788 24.3248 20.5749 24.3248 21.6211 23.2472L29.198 15.4423C30.2441 14.3647 30.2441 12.6175 29.198 11.5399C28.1518 10.4623 26.4557 10.4623 25.4095 11.5399L24.6992 12.2716C24.6976 12.2732 24.696 12.2749 24.6944 12.2765C24.4437 12.5322 24.1051 12.6757 23.7521 12.6757C23.3969 12.6757 23.0562 12.5303 22.805 12.2716C22.5538 12.0128 22.4127 11.6619 22.4127 11.296C22.4127 10.9311 22.553 10.581 22.803 10.3225C22.8036 10.3218 22.8043 10.3211 22.805 10.3204L26.3567 6.66186C27.4028 5.58423 27.4028 3.83706 26.3567 2.75944C25.3105 1.68181 23.6144 1.68181 22.5682 2.75944L11.4396 14.2228C11.1884 14.4815 10.8478 14.6269 10.4925 14.6269C10.1373 14.6269 9.79659 14.4815 9.5454 14.2228C9.29421 13.9641 9.1531 13.6131 9.1531 13.2472C9.1531 12.8813 9.29421 12.5303 9.5454 12.2716L12.15 9.58867C13.1961 8.51105 13.1961 6.76387 12.15 5.68625C11.1038 4.60862 9.40767 4.60862 8.36151 5.68625L0.784614 13.4911C-0.261538 14.5687 -0.261538 16.3159 0.784614 17.3935C1.83077 18.4711 3.52691 18.4711 4.57306 17.3935L5.2834 16.6618C5.53459 16.4031 5.87527 16.2577 6.23051 16.2577C6.58575 16.2577 6.92643 16.4031 7.17762 16.6618C7.42881 16.9206 7.56993 17.2715 7.56993 17.6374C7.56993 18.0033 7.42881 18.3543 7.17762 18.613L3.62597 22.2716Z" fill="#085CF0"/>
</svg>
